<?xml version="1.0" encoding="UTF-8" standalone="no"?>
<!-- Created with Inkscape (http://www.inkscape.org/) -->

<svg
   xmlns:dc="http://purl.org/dc/elements/1.1/"
   xmlns:cc="http://creativecommons.org/ns#"
   xmlns:rdf="http://www.w3.org/1999/02/22-rdf-syntax-ns#"
   xmlns:svg="http://www.w3.org/2000/svg"
   xmlns="http://www.w3.org/2000/svg"
   xmlns:sodipodi="http://sodipodi.sourceforge.net/DTD/sodipodi-0.dtd"
   xmlns:inkscape="http://www.inkscape.org/namespaces/inkscape"
   id="svg7384"
   height="16"
   width="16"
   version="1.1"
   inkscape:version="0.91 r13725"
   sodipodi:docname="user-invisible-symbolic.svg">
  <defs
     id="defs3414" />
  <sodipodi:namedview
     pagecolor="#ffffff"
     bordercolor="#666666"
     borderopacity="1"
     objecttolerance="10"
     gridtolerance="10"
     guidetolerance="10"
     inkscape:pageopacity="0"
     inkscape:pageshadow="2"
     inkscape:window-width="1680"
     inkscape:window-height="986"
     id="namedview3412"
     showgrid="false"
     inkscape:zoom="43.9375"
     inkscape:cx="4.0512091"
     inkscape:cy="8"
     inkscape:window-x="0"
     inkscape:window-y="27"
     inkscape:window-maximized="1"
     inkscape:current-layer="svg7384" />
  <metadata
     id="metadata90">
    <rdf:RDF>
      <cc:Work
         rdf:about="">
        <dc:format>image/svg+xml</dc:format>
        <dc:type
           rdf:resource="http://purl.org/dc/dcmitype/StillImage" />
        <dc:title>Gnome Symbolic Icon Theme</dc:title>
      </cc:Work>
    </rdf:RDF>
  </metadata>
  <title
     id="title9167">Gnome Symbolic Icon Theme</title>
  <g
     id="layer9"
     transform="translate(-101 -357)">
    <path
       id="path8297"
       style="fill:#bebebe"
       d="m104.5 358c-1.385 0-2.5 1.115-2.5 2.5v5c0 1.385 1.115 2.5 2.5 2.5h6.375l3.125 4v-4.0625c1.1413-0.23235 2-1.2256 2-2.4375v-5c0-1.385-1.115-2.5-2.5-2.5h-9zm0 2h9c0.277 0 0.5 0.223 0.5 0.5v5c0 0.277-0.223 0.5-0.5 0.5h-9c-0.277 0-0.5-0.223-0.5-0.5v-5c0-0.277 0.223-0.5 0.5-0.5z" />
  </g>
  <path
     style="fill:#000000;fill-opacity:1"
     d="M 11.434424,12.980828 9.886771,10.997154 6.6207681,10.996025 C 3.1198182,10.994814 3.1356769,10.995291 2.7630156,10.880066 1.9466843,10.627661 1.300046,9.9508211 1.0902647,9.1291885 c -0.02506,-0.09815 -0.055636,-0.2740764 -0.067946,-0.3909478 -0.0298442,-0.2833272 -0.0298442,-5.1942921 0,-5.4776194 C 1.1462789,2.0837954 2.0349851,1.1711397 3.1954481,1.0289287 3.4835405,0.9936239 12.511908,0.9936239 12.8,1.0289287 13.942469,1.1689346 14.831065,2.057531 14.971071,3.2 c 0.03486,0.2844864 0.03486,5.3143756 0,5.598862 -0.06762,0.5518066 -0.312011,1.0541688 -0.703077,1.445235 -0.298227,0.298227 -0.741221,0.554357 -1.125942,0.650996 l -0.14835,0.03726 -0.0058,2.016072 -0.0058,2.016073 -1.547653,-1.983674 z m 1.214762,-4.0011432 c 0.158839,-0.04717 0.284466,-0.1727973 0.331637,-0.331637 0.03109,-0.1046951 0.03539,-0.426662 0.03539,-2.6486168 0,-2.8331419 0.008,-2.6889714 -0.159317,-2.85633 -0.171578,-0.171578 0.201918,-0.1593172 -4.8532274,-0.1593172 -3.2263331,0 -4.5549902,0.00722 -4.6261162,0.025126 -0.1209304,0.030451 -0.2700793,0.1532068 -0.3308297,0.2722875 -0.043709,0.085676 -0.044734,0.1479881 -0.044734,2.7182336 0,2.5457582 0.0014,2.6332691 0.043525,2.7149893 0.062758,0.1217568 0.1855383,0.230643 0.3004975,0.266493 0.082926,0.025861 0.8673732,0.031377 4.6418895,0.032642 4.0456107,0.00136 4.5551267,-0.00235 4.6612827,-0.033871 z"
     id="path3416"
     inkscape:connector-curvature="0" />
  <rect
     style="fill:#000000;fill-opacity:1"
     id="rect4218"
     width="7.9886203"
     height="0.81934565"
     x="3.8691323"
     y="4.1194878" />
  <rect
     style="fill:#000000;fill-opacity:1"
     id="rect4218-2"
     width="2.5263159"
     height="0.81934565"
     x="3.880512"
     y="6.8733993" />
</svg>
