<?xml version="1.0" encoding="UTF-8" standalone="no"?>
<!-- Created with Inkscape (http://www.inkscape.org/) -->

<svg
   xmlns:dc="http://purl.org/dc/elements/1.1/"
   xmlns:cc="http://creativecommons.org/ns#"
   xmlns:rdf="http://www.w3.org/1999/02/22-rdf-syntax-ns#"
   xmlns:svg="http://www.w3.org/2000/svg"
   xmlns="http://www.w3.org/2000/svg"
   xmlns:sodipodi="http://sodipodi.sourceforge.net/DTD/sodipodi-0.dtd"
   xmlns:inkscape="http://www.inkscape.org/namespaces/inkscape"
   id="svg7384"
   height="16"
   width="16"
   version="1.1"
   inkscape:version="0.91 r13725"
   sodipodi:docname="evince-comment-annotation.svg"
   inkscape:export-filename="/home/arshad/evince/data/icons/22x22/actions/evince-comment-annotation.png"
   inkscape:export-xdpi="123.75"
   inkscape:export-ydpi="123.75">
  <defs
     id="defs3414" />
  <sodipodi:namedview
     pagecolor="#ffffff"
     bordercolor="#666666"
     borderopacity="1"
     objecttolerance="10"
     gridtolerance="10"
     guidetolerance="10"
     inkscape:pageopacity="0"
     inkscape:pageshadow="2"
     inkscape:window-width="1680"
     inkscape:window-height="986"
     id="namedview3412"
     showgrid="false"
     inkscape:zoom="43.9375"
     inkscape:cx="4.915093"
     inkscape:cy="8"
     inkscape:window-x="0"
     inkscape:window-y="27"
     inkscape:window-maximized="1"
     inkscape:current-layer="svg7384" />
  <metadata
     id="metadata90">
    <rdf:RDF>
      <cc:Work
         rdf:about="">
        <dc:format>image/svg+xml</dc:format>
        <dc:type
           rdf:resource="http://purl.org/dc/dcmitype/StillImage" />
        <dc:title>Gnome Symbolic Icon Theme</dc:title>
      </cc:Work>
    </rdf:RDF>
  </metadata>
  <title
     id="title9167">Gnome Symbolic Icon Theme</title>
  <path
     style="fill:#bebebe;fill-opacity:1;stroke:#000000;stroke-width:0.0227596;stroke-opacity:0"
     d="M 11.413012,12.964015 9.8826395,11.002616 6.633496,10.987376 C 4.8336321,10.978934 3.2852575,10.962295 3.1621905,10.950072 2.6271007,10.896928 2.1325609,10.651488 1.7229018,10.235754 1.3903349,9.8982556 1.179438,9.5297696 1.0716208,9.0978146 0.99808706,8.8032116 0.97755206,7.8556076 0.99140716,5.3963016 1.0044739,3.0769395 1.0036331,3.0932795 1.129285,2.7165346 1.2586655,2.3286102 1.4321802,2.0536944 1.7441572,1.7423342 2.0778066,1.4093446 2.4101797,1.2185133 2.8728594,1.0942923 3.0652892,1.0426284 3.071162,1.0424665 5.5123755,1.0215437 c 1.480054,-0.012685 3.417756,-0.012794 4.9046935,-2.761e-4 l 2.458037,0.020693 0.227062,0.060524 c 0.124884,0.033288 0.331175,0.1113763 0.458424,0.173529 0.670184,0.3273388 1.115267,0.8773747 1.3253,1.6378119 l 0.06018,0.2178952 0,2.8677098 0,2.8677101 -0.06018,0.217895 c -0.128943,0.466847 -0.334712,0.831811 -0.637403,1.1305394 -0.344522,0.34001 -0.696066,0.544797 -1.162733,0.677335 l -0.130744,0.03713 -0.0058,1.997686 -0.0058,1.997686 -1.530373,-1.961399 z m 1.161807,-3.9696384 c 0.148815,-0.02447 0.28476,-0.125072 0.355943,-0.263397 l 0.05814,-0.112984 0,-2.58382 c 0,-2.0627514 -0.006,-2.607284 -0.02997,-2.7001707 C 12.924512,3.2003434 12.805769,3.068064 12.680354,3.023662 12.575352,2.9864875 3.4865072,2.9698433 3.3500937,3.0065756 3.2287495,3.0392502 3.0796308,3.1582682 3.0222035,3.2682788 2.9750385,3.3586298 2.9746285,3.377115 2.9678145,5.714936 c -0.00378,1.2955903 0.00185,2.4996626 0.01251,2.6757156 0.016825,0.277969 0.026174,0.329646 0.071041,0.392655 0.079761,0.112014 0.1944382,0.187845 0.3146032,0.208034 0.1417097,0.02381 9.0646473,0.02675 9.2088503,0.003 z"
     id="path4347"
     inkscape:connector-curvature="0" />
  <path
     style="fill:#bebebe;fill-opacity:1;stroke:#000000;stroke-width:0.0227596;stroke-opacity:0"
     d="m 3.828165,4.4517781 0,-0.398293 3.9829303,0 3.9829307,0 0,0.398293 0,0.398293 -3.9829307,0 -3.9829303,0 0,-0.398293 z"
     id="path4371"
     inkscape:connector-curvature="0" />
  <path
     style="fill:#bebebe;fill-opacity:1;stroke:#000000;stroke-width:0.0227596;stroke-opacity:0"
     d="m 3.828165,7.2056899 0,-0.398293 1.2517781,0 1.2517781,0 0,0.398293 0,0.398293 -1.2517781,0 -1.2517781,0 0,-0.398293 z"
     id="path4373"
     inkscape:connector-curvature="0" />
  <path
     style="fill:#808080;fill-opacity:1;stroke:#000000;stroke-width:0.0227596;stroke-opacity:0"
     d="m 12.683926,14.579352 c -0.137696,-0.175495 -0.82243,-1.052489 -1.521631,-1.948875 l -1.2712755,-1.629792 -2.4044003,-0.0139 c -1.3224201,-0.0076 -2.870403,-0.02293 -3.439962,-0.03396 C 2.8522978,10.929689 2.8298772,10.926409 2.3965861,10.71147 2.0031743,10.516314 1.668172,10.220076 1.4095421,9.838641 1.199636,9.5290658 1.0800302,9.1944776 1.0374438,8.7977254 0.99663079,8.4174942 0.99755553,3.4877544 1.0385023,3.1553133 1.0928028,2.7144543 1.2768909,2.2993634 1.5772404,1.9405399 1.8207307,1.6496453 2.0835091,1.4400871 2.3965861,1.287135 2.8430299,1.0690274 2.8278495,1.0711917 4.0921764,1.0453861 c 0.6379662,-0.013021 2.7271973,-0.017563 4.9502134,-0.010762 3.7767322,0.011555 3.8491902,0.012602 4.0020042,0.057815 0.582828,0.1724399 1.018968,0.4472763 1.340901,0.8449774 0.192916,0.2383199 0.398168,0.646142 0.49397,0.981485 l 0.06924,0.2423721 0,2.8381577 0,2.8381576 -0.0701,0.2423723 c -0.256825,0.888014 -0.830534,1.4873278 -1.693768,1.7693638 l -0.227596,0.07436 -0.01138,1.987375 -0.01138,1.987375 -0.250356,-0.319083 z m -0.0833,-5.5883775 c 0.133735,-0.028681 0.280265,-0.1448 0.346462,-0.2745566 0.04466,-0.087542 0.04527,-0.1303001 0.03904,-2.7343966 L 12.979828,3.3365576 12.922928,3.23515 C 12.891628,3.179376 12.821619,3.1025622 12.767341,3.064453 L 12.668651,2.995164 8.1056981,2.987054 C 5.5960512,2.9825916 3.4871775,2.9858815 3.4192892,2.9943636 3.2543593,3.0149703 3.0987036,3.1221699 3.0245859,3.2661944 l -0.055394,0.1076416 -0.00953,2.2459412 c -0.00987,2.3252245 0.00521,3.0118343 0.068815,3.1341601 0.072772,0.1399445 0.198174,0.2189628 0.3809153,0.2400228 0.2277868,0.026251 9.0682968,0.023379 9.1912328,-0.00299 z"
     id="path4375"
     inkscape:connector-curvature="0" />
  <path
     style="fill:#808080;fill-opacity:1;stroke:#000000;stroke-width:0.0227596;stroke-opacity:0"
     d="m 3.8418208,4.4517781 0,-0.398293 3.9715505,0 3.9715507,0 0,0.398293 0,0.398293 -3.9715507,0 -3.9715505,0 0,-0.398293 z"
     id="path4377"
     inkscape:connector-curvature="0" />
  <path
     style="fill:#808080;fill-opacity:1;stroke:#000000;stroke-width:0.0227596;stroke-opacity:0"
     d="m 3.8418208,7.2056899 0,-0.398293 1.2403983,0 1.2403983,0 0,0.398293 0,0.398293 -1.2403983,0 -1.2403983,0 0,-0.398293 z"
     id="path4379"
     inkscape:connector-curvature="0"
     inkscape:export-filename="/home/arshad/evince/data/icons/22x22/actions/evince-comment-annotation.png"
     inkscape:export-xdpi="141.85617"
     inkscape:export-ydpi="141.85617" />
  <path
     style="fill:#4d4d4d;fill-opacity:1;stroke:#000000;stroke-width:0.0227596;stroke-opacity:0"
     d="m 11.562667,13.130307 c -0.735707,-0.94275 -1.410169,-1.808402 -1.498806,-1.923671 l -0.1611583,-0.20958 -0.2958748,-0.0011 C 7.8877943,10.989564 3.8526366,10.944173 3.4617354,10.92683 2.8755413,10.900822 2.7550137,10.876533 2.4392814,10.720777 1.8150892,10.412854 1.3215102,9.8572454 1.1390949,9.2571921 1.0337693,8.9107248 1.0332788,8.8992091 1.0221457,6.511522 1.0102354,3.9571346 1.0284011,3.146571 1.1040122,2.858606 1.2150288,2.4357992 1.5358477,1.936062 1.8892962,1.6353752 2.2166006,1.3569297 2.6469558,1.1434204 2.9837838,1.0923744 3.2108224,1.0579668 12.08936,1.035442 12.656615,1.0678345 c 0.403455,0.023039 0.506791,0.049153 0.867655,0.2192666 0.671966,0.3167688 1.114805,0.8584148 1.350515,1.6518448 l 0.06917,0.2328342 0,2.8276509 0,2.8276509 -0.06987,0.2362458 c -0.265745,0.898489 -0.802699,1.4648803 -1.682042,1.7742563 l -0.239549,0.08428 -0.01138,1.946562 c -0.0063,1.070609 -0.018,1.95318 -0.02609,1.961268 -0.0081,0.0081 -0.616649,-0.756636 -1.352355,-1.699386 z m 1.139467,-4.1644808 c 0.09899,-0.054905 0.218217,-0.1784794 0.253719,-0.2629614 0.02527,-0.060127 0.03078,-0.5480986 0.03078,-2.7259146 l 0,-2.6526769 -0.0555,-0.087914 C 12.900607,3.1880062 12.830302,3.1112992 12.774897,3.0658989 L 12.67416,2.9833529 7.9996691,2.9892629 C 3.627462,2.9947829 3.3205508,2.9977029 3.2536244,3.0343329 3.1620944,3.0844319 3.0502879,3.1962384 3.000189,3.2877682 2.964023,3.3538432 2.960519,3.5309521 2.95443,5.6011425 2.94794,7.8087207 2.965124,8.6414258 3.019353,8.7465106 3.089326,8.8821045 3.2076538,8.96276 3.3798685,8.992248 3.4374135,9.002098 5.5431013,9.00871 8.0591753,9.006933 12.279738,9.003953 12.63914,9.000773 12.702134,8.965831 Z"
     id="path4177"
     inkscape:connector-curvature="0" />
  <path
     style="fill:#4d4d4d;fill-opacity:1;stroke:#000000;stroke-width:0.0227596;stroke-opacity:0"
     d="m 3.8600284,4.4517781 0,-0.398293 3.9601707,0 3.9601709,0 0,0.398293 0,0.398293 -3.9601709,0 -3.9601707,0 0,-0.398293 z"
     id="path4179"
     inkscape:connector-curvature="0" />
  <path
     style="fill:#4d4d4d;fill-opacity:1;stroke:#000000;stroke-width:0.0227596;stroke-opacity:0"
     d="m 3.8600284,7.2056899 0,-0.398293 1.2290185,0 1.2290185,0 0,0.398293 0,0.398293 -1.2290185,0 -1.2290185,0 0,-0.398293 z"
     id="path4181"
     inkscape:connector-curvature="0" />
  <path
     style="fill:#4d4d4d;fill-opacity:1;stroke:#000000;stroke-width:0.0227596;stroke-opacity:0"
     d="m 12.815932,14.7072 c -0.03755,-0.04791 -0.350406,-0.444399 -0.695226,-0.881083 -0.344822,-0.436683 -0.982805,-1.251091 -1.417742,-1.809795 L 9.9121689,11.000496 8.9287729,10.987031 C 8.3879051,10.979625 6.9417425,10.962628 5.715078,10.949259 3.455871,10.924638 3.0215398,10.909457 2.7805785,10.846695 2.3457387,10.733433 1.8159235,10.351784 1.4894278,9.9166225 1.2182178,9.555147 1.0946365,9.210423 1.0601607,8.7192034 1.0303587,8.2945784 1.0311535,3.6687859 1.0610952,3.280301 1.0883408,2.9267967 1.1253614,2.7649888 1.2317232,2.5345285 1.5454626,1.8547307 2.1679842,1.3135823 2.8505454,1.1273114 3.0957011,1.0604084 12.291891,1.0323662 12.879416,1.09673 c 0.234249,0.025662 0.339603,0.058033 0.62462,0.1919205 0.281633,0.132298 0.509733,0.2937243 0.715408,0.506293 0.287818,0.2974647 0.479865,0.6314156 0.637864,1.1091817 l 0.07527,0.227596 0,2.8677098 0,2.8677098 -0.08684,0.2595228 c -0.29352,0.8771594 -0.764091,1.3649944 -1.633813,1.6937544 l -0.25943,0.09807 -0.01384,1.352707 c -0.0076,0.743989 -0.01529,1.616434 -0.01707,1.938767 -0.0018,0.322333 -0.01091,0.585677 -0.0203,0.585209 -0.0094,-4.69e-4 -0.0478,-0.04005 -0.08535,-0.08797 z M 12.419486,8.9956001 c 0.2711,-0.014702 0.290485,-0.018999 0.364154,-0.080732 0.0428,-0.035862 0.103415,-0.1009751 0.13471,-0.144696 l 0.0569,-0.079492 0.0061,-2.6851603 C 12.98735,3.3446654 12.98695,3.3196852 12.94137,3.2458701 12.91605,3.2049011 12.84954,3.1291715 12.793574,3.0775825 L 12.691771,2.9837838 8.2360703,2.98551 C 5.785435,2.9864593 3.6622739,2.99447 3.5179343,3.003305 3.2795607,3.017901 3.2479754,3.025112 3.1734453,3.08196 3.1283163,3.116382 3.0620592,3.1868756 3.026208,3.2386127 l -0.065184,0.094067 0,2.5851536 c 0,1.9838328 0.00663,2.6166425 0.02851,2.720529 0.045535,0.2162137 0.1819092,0.3298276 0.4266819,0.3554692 0.1864328,0.01953 8.6451131,0.021192 9.0032701,0.00177 z"
     id="path4183"
     inkscape:connector-curvature="0" />
  <path
     style="fill:#4d4d4d;fill-opacity:1;stroke:#000000;stroke-width:0.0227596;stroke-opacity:0"
     d="m 3.8600284,7.2056899 0,-0.398293 1.2290185,0 1.2290185,0 0,0.398293 0,0.398293 -1.2290185,0 -1.2290185,0 0,-0.398293 z"
     id="path4185"
     inkscape:connector-curvature="0" />
  <path
     style="fill:#4d4d4d;fill-opacity:1;stroke:#000000;stroke-width:0.0227596;stroke-opacity:0"
     d="m 3.8600284,4.4517781 0,-0.398293 3.9601707,0 3.9601709,0 0,0.398293 0,0.398293 -3.9601709,0 -3.9601707,0 0,-0.398293 z"
     id="path4187"
     inkscape:connector-curvature="0" />
</svg>
