<?xml version="1.0" encoding="UTF-8" standalone="no"?>
<!-- Created with Inkscape (http://www.inkscape.org/) -->

<svg
   xmlns:dc="http://purl.org/dc/elements/1.1/"
   xmlns:cc="http://creativecommons.org/ns#"
   xmlns:rdf="http://www.w3.org/1999/02/22-rdf-syntax-ns#"
   xmlns:svg="http://www.w3.org/2000/svg"
   xmlns="http://www.w3.org/2000/svg"
   xmlns:sodipodi="http://sodipodi.sourceforge.net/DTD/sodipodi-0.dtd"
   xmlns:inkscape="http://www.inkscape.org/namespaces/inkscape"
   id="svg7384"
   height="16"
   width="16"
   version="1.1"
   inkscape:version="0.91 r13725"
   sodipodi:docname="format-text-strikethrough-symbolic.svg"
   inkscape:export-filename="/home/arshad/evince/data/icons/scalable/actions/format-text-strikethrough-symbolic.svg.png"
   inkscape:export-xdpi="123.75"
   inkscape:export-ydpi="123.75">
  <defs
     id="defs10" />
  <sodipodi:namedview
     pagecolor="#ffffff"
     bordercolor="#666666"
     borderopacity="1"
     objecttolerance="10"
     gridtolerance="10"
     guidetolerance="10"
     inkscape:pageopacity="0"
     inkscape:pageshadow="2"
     inkscape:window-width="979"
     inkscape:window-height="690"
     id="namedview8"
     showgrid="false"
     inkscape:zoom="14.75"
     inkscape:cx="-5.0847458"
     inkscape:cy="7.4576272"
     inkscape:window-x="334"
     inkscape:window-y="86"
     inkscape:window-maximized="0"
     inkscape:current-layer="svg7384" />
  <metadata
     id="metadata90">
    <rdf:RDF>
      <cc:Work
         rdf:about="">
        <dc:format>image/svg+xml</dc:format>
        <dc:type
           rdf:resource="http://purl.org/dc/dcmitype/StillImage" />
        <dc:title>Gnome Symbolic Icon Theme</dc:title>
      </cc:Work>
    </rdf:RDF>
  </metadata>
  <title
     id="title9167">Gnome Symbolic Icon Theme</title>
  <g
     id="layer12"
     transform="translate(-200 -706)"
     style="fill:#000000">
    <path
       id="path11643-3-2-6"
       style="block-progression:tb;text-indent:0;color:#000000;text-transform:none;fill:#000000"
       d="m204 709v2h6c0.42816 0 1 0.61414 1 1h2c0-1.6343-1.3198-3-3-3h-6zm-1 7c0.006 0.72062 0.26893 1.4527 0.78125 2.0312 0.51 0.58 1.31 0.97 2.22 0.97h6 1v-1-2h-2v1h-5c-0.39787 0-0.56691-0.10979-0.71875-0.28125-0.15-0.17-0.28-0.44-0.28-0.72h-2z" />
    <path
       id="path5100-8"
       style="block-progression:tb;text-indent:0;color:#000000;text-transform:none;fill:#000000"
       d="m201 713v2h14v-2h-14z" />
  </g>
</svg>
